<mxfile host="app.diagrams.net" modified="2022-08-09T07:04:15.166Z" agent="5.0 (Windows NT 10.0; Win64; x64) AppleWebKit/537.36 (KHTML, like Gecko) Chrome/103.0.0.0 Safari/537.36" etag="p-0DBhAgo_LuCBQYdytr" version="20.2.2" type="github">
  <diagram id="JrTWQDsPUbdIkZVOQxFZ" name="Trang-1">
    <mxGraphModel dx="5717" dy="4515" grid="1" gridSize="10" guides="1" tooltips="1" connect="1" arrows="1" fold="1" page="1" pageScale="1" pageWidth="827" pageHeight="1169" math="0" shadow="0">
      <root>
        <mxCell id="0" />
        <mxCell id="1" parent="0" />
        <mxCell id="LH0M2-8ZSX1hAYfI60tU-2" value="EMarket" style="whiteSpace=wrap;rounded=1;shadow=1;fillColor=#10739E;strokeColor=none;fontColor=#FFFFFF;fontStyle=1;fontSize=24" vertex="1" parent="1">
          <mxGeometry x="-150" y="-2190" width="340" height="60" as="geometry" />
        </mxCell>
        <mxCell id="LH0M2-8ZSX1hAYfI60tU-3" value="USER" style="whiteSpace=wrap;rounded=1;fillColor=#F2931E;strokeColor=none;shadow=1;fontColor=#FFFFFF;fontStyle=1;fontSize=14" vertex="1" parent="1">
          <mxGeometry x="-860" y="-1970.0000000000002" width="140" height="60" as="geometry" />
        </mxCell>
        <mxCell id="LH0M2-8ZSX1hAYfI60tU-4" value="Hiển thị sản phẩm" style="whiteSpace=wrap;rounded=1;fillColor=#12AAB5;strokeColor=none;shadow=1;fontColor=#FFFFFF;" vertex="1" parent="1">
          <mxGeometry x="-1420" y="-2060" width="120" height="60" as="geometry" />
        </mxCell>
        <mxCell id="LH0M2-8ZSX1hAYfI60tU-5" style="edgeStyle=orthogonalEdgeStyle;rounded=0;orthogonalLoop=1;jettySize=auto;html=1;exitX=0.5;exitY=1;exitDx=0;exitDy=0;entryX=0.5;entryY=0;entryDx=0;entryDy=0;strokeWidth=2;" edge="1" parent="1" source="LH0M2-8ZSX1hAYfI60tU-6" target="LH0M2-8ZSX1hAYfI60tU-29">
          <mxGeometry relative="1" as="geometry" />
        </mxCell>
        <mxCell id="LH0M2-8ZSX1hAYfI60tU-6" value="Đặt hàng" style="whiteSpace=wrap;rounded=1;fillColor=#12AAB5;strokeColor=none;shadow=1;fontColor=#FFFFFF;" vertex="1" parent="1">
          <mxGeometry x="-1250" y="-1772.5" width="120" height="60" as="geometry" />
        </mxCell>
        <mxCell id="LH0M2-8ZSX1hAYfI60tU-7" value="xem theo thể loại" style="whiteSpace=wrap;rounded=1;fillColor=#999999;strokeColor=none;shadow=1;fontColor=#FFFFFF;fontStyle=0" vertex="1" parent="1">
          <mxGeometry x="-1420" y="-1969.5" width="120" height="60" as="geometry" />
        </mxCell>
        <mxCell id="LH0M2-8ZSX1hAYfI60tU-8" value="tìm kiếm theo tên" style="whiteSpace=wrap;rounded=1;fillColor=#999999;strokeColor=none;shadow=1;fontColor=#FFFFFF;fontStyle=0" vertex="1" parent="1">
          <mxGeometry x="-1420" y="-1890.5" width="120" height="60" as="geometry" />
        </mxCell>
        <mxCell id="LH0M2-8ZSX1hAYfI60tU-9" value="xem lượt mua" style="whiteSpace=wrap;rounded=1;fillColor=#999999;strokeColor=none;shadow=1;fontColor=#FFFFFF;fontStyle=0" vertex="1" parent="1">
          <mxGeometry x="-1420" y="-1807.5" width="120" height="60" as="geometry" />
        </mxCell>
        <mxCell id="LH0M2-8ZSX1hAYfI60tU-10" value="xem đánh giá" style="whiteSpace=wrap;rounded=1;fillColor=#999999;strokeColor=none;shadow=1;fontColor=#FFFFFF;fontStyle=0" vertex="1" parent="1">
          <mxGeometry x="-1419.9999999999998" y="-1727.5" width="120" height="60" as="geometry" />
        </mxCell>
        <mxCell id="LH0M2-8ZSX1hAYfI60tU-11" value="" style="edgeStyle=orthogonalEdgeStyle;elbow=vertical;rounded=0;fontColor=#000000;endArrow=none;endFill=0;strokeWidth=8;strokeColor=#23445D;exitX=0.5;exitY=1;exitDx=0;exitDy=0;" edge="1" parent="1" source="LH0M2-8ZSX1hAYfI60tU-2" target="LH0M2-8ZSX1hAYfI60tU-4">
          <mxGeometry width="100" height="100" relative="1" as="geometry">
            <mxPoint x="-1508" y="-1336" as="sourcePoint" />
            <mxPoint x="-1408" y="-1436" as="targetPoint" />
          </mxGeometry>
        </mxCell>
        <mxCell id="LH0M2-8ZSX1hAYfI60tU-12" value="" style="edgeStyle=orthogonalEdgeStyle;elbow=vertical;rounded=0;fontColor=#000000;endArrow=none;endFill=0;strokeWidth=8;strokeColor=#23445D;exitX=0.5;exitY=1;exitDx=0;exitDy=0;" edge="1" parent="1" source="LH0M2-8ZSX1hAYfI60tU-3" target="LH0M2-8ZSX1hAYfI60tU-6">
          <mxGeometry width="100" height="100" relative="1" as="geometry">
            <mxPoint x="-1168" y="-1336" as="sourcePoint" />
            <mxPoint x="-1068" y="-1436" as="targetPoint" />
          </mxGeometry>
        </mxCell>
        <mxCell id="LH0M2-8ZSX1hAYfI60tU-13" value="" style="edgeStyle=elbowEdgeStyle;elbow=horizontal;rounded=0;fontColor=#000000;endArrow=none;endFill=0;strokeWidth=8;strokeColor=#23445D;" edge="1" parent="1" source="LH0M2-8ZSX1hAYfI60tU-4" target="LH0M2-8ZSX1hAYfI60tU-7">
          <mxGeometry width="100" height="100" relative="1" as="geometry">
            <mxPoint x="-1480" y="-1889.5" as="sourcePoint" />
            <mxPoint x="-1380" y="-1989.5" as="targetPoint" />
            <Array as="points">
              <mxPoint x="-1440" y="-1989.5" />
            </Array>
          </mxGeometry>
        </mxCell>
        <mxCell id="LH0M2-8ZSX1hAYfI60tU-14" value="" style="edgeStyle=elbowEdgeStyle;elbow=horizontal;rounded=0;fontColor=#000000;endArrow=none;endFill=0;strokeWidth=8;strokeColor=#23445D;" edge="1" parent="1" source="LH0M2-8ZSX1hAYfI60tU-4" target="LH0M2-8ZSX1hAYfI60tU-8">
          <mxGeometry width="100" height="100" relative="1" as="geometry">
            <mxPoint x="-1410" y="-2029.5" as="sourcePoint" />
            <mxPoint x="-1410" y="-1929.5" as="targetPoint" />
            <Array as="points">
              <mxPoint x="-1440" y="-1969.5" />
            </Array>
          </mxGeometry>
        </mxCell>
        <mxCell id="LH0M2-8ZSX1hAYfI60tU-15" value="" style="edgeStyle=elbowEdgeStyle;elbow=horizontal;rounded=0;fontColor=#000000;endArrow=none;endFill=0;strokeWidth=8;strokeColor=#23445D;" edge="1" parent="1" source="LH0M2-8ZSX1hAYfI60tU-4" target="LH0M2-8ZSX1hAYfI60tU-10">
          <mxGeometry width="100" height="100" relative="1" as="geometry">
            <mxPoint x="-1390" y="-2009.5" as="sourcePoint" />
            <mxPoint x="-1390" y="-1909.5" as="targetPoint" />
            <Array as="points">
              <mxPoint x="-1440" y="-1959.5" />
            </Array>
          </mxGeometry>
        </mxCell>
        <mxCell id="LH0M2-8ZSX1hAYfI60tU-16" value="" style="edgeStyle=elbowEdgeStyle;elbow=horizontal;rounded=0;fontColor=#000000;endArrow=none;endFill=0;strokeWidth=8;strokeColor=#23445D;exitX=0;exitY=0.5;exitDx=0;exitDy=0;" edge="1" parent="1" source="LH0M2-8ZSX1hAYfI60tU-4" target="LH0M2-8ZSX1hAYfI60tU-9">
          <mxGeometry width="100" height="100" relative="1" as="geometry">
            <mxPoint x="-1380" y="-1999.5" as="sourcePoint" />
            <mxPoint x="-1380" y="-1899.5" as="targetPoint" />
            <Array as="points">
              <mxPoint x="-1440" y="-1939.5" />
            </Array>
          </mxGeometry>
        </mxCell>
        <mxCell id="LH0M2-8ZSX1hAYfI60tU-17" value="Theo dõi đơn hàng" style="whiteSpace=wrap;rounded=1;fillColor=#12AAB5;strokeColor=none;shadow=1;fontColor=#FFFFFF;" vertex="1" parent="1">
          <mxGeometry x="-782" y="-1682" width="120" height="60" as="geometry" />
        </mxCell>
        <mxCell id="LH0M2-8ZSX1hAYfI60tU-18" value="Xem lịch sử đặt hàng" style="whiteSpace=wrap;rounded=1;fillColor=#12AAB5;strokeColor=none;shadow=1;fontColor=#FFFFFF;" vertex="1" parent="1">
          <mxGeometry x="-1030" y="-1682" width="120" height="60" as="geometry" />
        </mxCell>
        <mxCell id="LH0M2-8ZSX1hAYfI60tU-19" style="edgeStyle=orthogonalEdgeStyle;rounded=0;orthogonalLoop=1;jettySize=auto;html=1;exitX=0.5;exitY=1;exitDx=0;exitDy=0;strokeWidth=2;" edge="1" parent="1" source="LH0M2-8ZSX1hAYfI60tU-20" target="LH0M2-8ZSX1hAYfI60tU-22">
          <mxGeometry relative="1" as="geometry" />
        </mxCell>
        <mxCell id="LH0M2-8ZSX1hAYfI60tU-20" value="Xử lý đơn hàng" style="whiteSpace=wrap;rounded=1;fillColor=#999999;strokeColor=none;shadow=1;fontColor=#FFFFFF;fontStyle=0" vertex="1" parent="1">
          <mxGeometry x="-702" y="-1603" width="120" height="60" as="geometry" />
        </mxCell>
        <mxCell id="LH0M2-8ZSX1hAYfI60tU-21" style="edgeStyle=orthogonalEdgeStyle;rounded=0;orthogonalLoop=1;jettySize=auto;html=1;exitX=0.5;exitY=1;exitDx=0;exitDy=0;entryX=0.5;entryY=0;entryDx=0;entryDy=0;strokeWidth=2;" edge="1" parent="1" source="LH0M2-8ZSX1hAYfI60tU-22" target="LH0M2-8ZSX1hAYfI60tU-24">
          <mxGeometry relative="1" as="geometry" />
        </mxCell>
        <mxCell id="LH0M2-8ZSX1hAYfI60tU-22" value="Giao hàng cho shipper" style="whiteSpace=wrap;rounded=1;fillColor=#999999;strokeColor=none;shadow=1;fontColor=#FFFFFF;fontStyle=0" vertex="1" parent="1">
          <mxGeometry x="-701.9999999999999" y="-1520" width="120" height="60" as="geometry" />
        </mxCell>
        <mxCell id="LH0M2-8ZSX1hAYfI60tU-23" style="edgeStyle=orthogonalEdgeStyle;rounded=0;orthogonalLoop=1;jettySize=auto;html=1;exitX=0.5;exitY=1;exitDx=0;exitDy=0;entryX=0.5;entryY=0;entryDx=0;entryDy=0;strokeWidth=2;" edge="1" parent="1" source="LH0M2-8ZSX1hAYfI60tU-24" target="LH0M2-8ZSX1hAYfI60tU-25">
          <mxGeometry relative="1" as="geometry">
            <mxPoint x="-642" y="-1325" as="targetPoint" />
          </mxGeometry>
        </mxCell>
        <mxCell id="LH0M2-8ZSX1hAYfI60tU-24" value="đang giao " style="whiteSpace=wrap;rounded=1;fillColor=#999999;strokeColor=none;shadow=1;fontColor=#FFFFFF;fontStyle=0" vertex="1" parent="1">
          <mxGeometry x="-702" y="-1440" width="120" height="60" as="geometry" />
        </mxCell>
        <mxCell id="LH0M2-8ZSX1hAYfI60tU-25" value="đã giao " style="whiteSpace=wrap;rounded=1;fillColor=#999999;strokeColor=none;shadow=1;fontColor=#FFFFFF;fontStyle=0" vertex="1" parent="1">
          <mxGeometry x="-701.9999999999998" y="-1363" width="120" height="60" as="geometry" />
        </mxCell>
        <mxCell id="LH0M2-8ZSX1hAYfI60tU-26" value="xem lịch sử mua hàng" style="whiteSpace=wrap;rounded=1;fillColor=#999999;strokeColor=none;shadow=1;fontColor=#FFFFFF;fontStyle=0" vertex="1" parent="1">
          <mxGeometry x="-940.0000000000005" y="-1600" width="120" height="60" as="geometry" />
        </mxCell>
        <mxCell id="LH0M2-8ZSX1hAYfI60tU-27" value="xem lịch sử đánh giá " style="whiteSpace=wrap;rounded=1;fillColor=#999999;strokeColor=none;shadow=1;fontColor=#FFFFFF;fontStyle=0" vertex="1" parent="1">
          <mxGeometry x="-940.0000000000002" y="-1523" width="120" height="60" as="geometry" />
        </mxCell>
        <mxCell id="LH0M2-8ZSX1hAYfI60tU-28" value="" style="edgeStyle=orthogonalEdgeStyle;rounded=0;orthogonalLoop=1;jettySize=auto;html=1;strokeWidth=2;" edge="1" parent="1" source="LH0M2-8ZSX1hAYfI60tU-29" target="LH0M2-8ZSX1hAYfI60tU-102">
          <mxGeometry relative="1" as="geometry" />
        </mxCell>
        <mxCell id="LH0M2-8ZSX1hAYfI60tU-29" value="Tích điểm" style="whiteSpace=wrap;rounded=1;fillColor=#12AAB5;strokeColor=none;shadow=1;fontColor=#FFFFFF;" vertex="1" parent="1">
          <mxGeometry x="-1250" y="-1682" width="120" height="60" as="geometry" />
        </mxCell>
        <mxCell id="LH0M2-8ZSX1hAYfI60tU-30" value="Đánh giá sản phẩm" style="whiteSpace=wrap;rounded=1;fillColor=#12AAB5;strokeColor=none;shadow=1;fontColor=#FFFFFF;" vertex="1" parent="1">
          <mxGeometry x="-478" y="-1772.5" width="120" height="60" as="geometry" />
        </mxCell>
        <mxCell id="LH0M2-8ZSX1hAYfI60tU-31" value="Admin" style="whiteSpace=wrap;rounded=1;fillColor=#F2931E;strokeColor=none;shadow=1;fontColor=#FFFFFF;fontStyle=1;fontSize=14" vertex="1" parent="1">
          <mxGeometry x="610" y="-1970.0000000000002" width="140" height="60" as="geometry" />
        </mxCell>
        <mxCell id="LH0M2-8ZSX1hAYfI60tU-32" value="Quản lí User" style="whiteSpace=wrap;rounded=1;fillColor=#12AAB5;strokeColor=none;shadow=1;fontColor=#FFFFFF;" vertex="1" parent="1">
          <mxGeometry x="121" y="-1770" width="120" height="60" as="geometry" />
        </mxCell>
        <mxCell id="LH0M2-8ZSX1hAYfI60tU-33" value="Quản lí đơn hàng" style="whiteSpace=wrap;rounded=1;fillColor=#12AAB5;strokeColor=none;shadow=1;fontColor=#FFFFFF;" vertex="1" parent="1">
          <mxGeometry x="344" y="-1770" width="120" height="60" as="geometry" />
        </mxCell>
        <mxCell id="LH0M2-8ZSX1hAYfI60tU-34" value="xem thông tin " style="whiteSpace=wrap;rounded=1;fillColor=#999999;strokeColor=none;shadow=1;fontColor=#FFFFFF;fontStyle=0" vertex="1" parent="1">
          <mxGeometry x="121" y="-1680" width="120" height="60" as="geometry" />
        </mxCell>
        <mxCell id="LH0M2-8ZSX1hAYfI60tU-35" value="xóa" style="whiteSpace=wrap;rounded=1;fillColor=#999999;strokeColor=none;shadow=1;fontColor=#FFFFFF;fontStyle=0" vertex="1" parent="1">
          <mxGeometry x="121" y="-1520" width="120" height="60" as="geometry" />
        </mxCell>
        <mxCell id="LH0M2-8ZSX1hAYfI60tU-36" value="tìm kiếm " style="whiteSpace=wrap;rounded=1;fillColor=#999999;strokeColor=none;shadow=1;fontColor=#FFFFFF;fontStyle=0" vertex="1" parent="1">
          <mxGeometry x="119.00000000000034" y="-1440" width="120" height="60" as="geometry" />
        </mxCell>
        <mxCell id="LH0M2-8ZSX1hAYfI60tU-37" value="in bill" style="whiteSpace=wrap;rounded=1;fillColor=#999999;strokeColor=none;shadow=1;fontColor=#FFFFFF;fontStyle=0" vertex="1" parent="1">
          <mxGeometry x="343.99999999999955" y="-1682" width="120" height="60" as="geometry" />
        </mxCell>
        <mxCell id="LH0M2-8ZSX1hAYfI60tU-38" value="" style="edgeStyle=orthogonalEdgeStyle;elbow=vertical;rounded=0;fontColor=#000000;endArrow=none;endFill=0;strokeWidth=8;strokeColor=#23445D;exitX=0.5;exitY=1;exitDx=0;exitDy=0;" edge="1" parent="1" source="LH0M2-8ZSX1hAYfI60tU-31" target="LH0M2-8ZSX1hAYfI60tU-32">
          <mxGeometry width="100" height="100" relative="1" as="geometry">
            <mxPoint x="-125" y="-1110" as="sourcePoint" />
            <mxPoint x="-25" y="-1210" as="targetPoint" />
          </mxGeometry>
        </mxCell>
        <mxCell id="LH0M2-8ZSX1hAYfI60tU-39" value="" style="edgeStyle=orthogonalEdgeStyle;elbow=vertical;rounded=0;fontColor=#000000;endArrow=none;endFill=0;strokeWidth=8;strokeColor=#23445D;exitX=0.5;exitY=1;exitDx=0;exitDy=0;" edge="1" parent="1" source="LH0M2-8ZSX1hAYfI60tU-31" target="LH0M2-8ZSX1hAYfI60tU-33">
          <mxGeometry width="100" height="100" relative="1" as="geometry">
            <mxPoint x="215" y="-1110" as="sourcePoint" />
            <mxPoint x="315" y="-1210" as="targetPoint" />
          </mxGeometry>
        </mxCell>
        <mxCell id="LH0M2-8ZSX1hAYfI60tU-40" value="" style="edgeStyle=elbowEdgeStyle;elbow=horizontal;rounded=0;fontColor=#000000;endArrow=none;endFill=0;strokeWidth=8;strokeColor=#23445D;entryX=0;entryY=0.5;entryDx=0;entryDy=0;" edge="1" parent="1" source="LH0M2-8ZSX1hAYfI60tU-32" target="LH0M2-8ZSX1hAYfI60tU-34">
          <mxGeometry width="100" height="100" relative="1" as="geometry">
            <mxPoint x="61" y="-1573" as="sourcePoint" />
            <mxPoint x="161" y="-1673" as="targetPoint" />
            <Array as="points">
              <mxPoint x="101" y="-1673" />
            </Array>
          </mxGeometry>
        </mxCell>
        <mxCell id="LH0M2-8ZSX1hAYfI60tU-41" value="" style="edgeStyle=elbowEdgeStyle;elbow=horizontal;rounded=0;fontColor=#000000;endArrow=none;endFill=0;strokeWidth=8;strokeColor=#23445D;entryX=0;entryY=0.5;entryDx=0;entryDy=0;" edge="1" parent="1" source="LH0M2-8ZSX1hAYfI60tU-32" target="LH0M2-8ZSX1hAYfI60tU-58">
          <mxGeometry width="100" height="100" relative="1" as="geometry">
            <mxPoint x="131" y="-1713" as="sourcePoint" />
            <mxPoint x="121" y="-1543" as="targetPoint" />
            <Array as="points">
              <mxPoint x="101" y="-1653" />
            </Array>
          </mxGeometry>
        </mxCell>
        <mxCell id="LH0M2-8ZSX1hAYfI60tU-42" value="" style="edgeStyle=elbowEdgeStyle;elbow=horizontal;rounded=0;fontColor=#000000;endArrow=none;endFill=0;strokeWidth=8;strokeColor=#23445D;" edge="1" parent="1" source="LH0M2-8ZSX1hAYfI60tU-32" target="LH0M2-8ZSX1hAYfI60tU-36">
          <mxGeometry width="100" height="100" relative="1" as="geometry">
            <mxPoint x="131" y="-1713" as="sourcePoint" />
            <mxPoint x="131" y="-1613" as="targetPoint" />
            <Array as="points">
              <mxPoint x="101" y="-1513" />
            </Array>
          </mxGeometry>
        </mxCell>
        <mxCell id="LH0M2-8ZSX1hAYfI60tU-43" value="" style="edgeStyle=elbowEdgeStyle;elbow=horizontal;rounded=0;fontColor=#000000;endArrow=none;endFill=0;strokeWidth=8;strokeColor=#23445D;" edge="1" parent="1" source="LH0M2-8ZSX1hAYfI60tU-32" target="LH0M2-8ZSX1hAYfI60tU-35">
          <mxGeometry width="100" height="100" relative="1" as="geometry">
            <mxPoint x="161" y="-1683" as="sourcePoint" />
            <mxPoint x="161" y="-1583" as="targetPoint" />
            <Array as="points">
              <mxPoint x="101" y="-1623" />
            </Array>
          </mxGeometry>
        </mxCell>
        <mxCell id="LH0M2-8ZSX1hAYfI60tU-44" value="" style="edgeStyle=elbowEdgeStyle;elbow=horizontal;rounded=0;fontColor=#000000;endArrow=none;endFill=0;strokeWidth=8;strokeColor=#23445D;entryX=0;entryY=0.5;entryDx=0;entryDy=0;" edge="1" parent="1" source="LH0M2-8ZSX1hAYfI60tU-33" target="LH0M2-8ZSX1hAYfI60tU-59">
          <mxGeometry width="100" height="100" relative="1" as="geometry">
            <mxPoint x="334" y="-1725.9999999999995" as="sourcePoint" />
            <mxPoint x="344" y="-1546" as="targetPoint" />
            <Array as="points">
              <mxPoint x="324" y="-1636" />
            </Array>
          </mxGeometry>
        </mxCell>
        <mxCell id="LH0M2-8ZSX1hAYfI60tU-45" value="" style="edgeStyle=elbowEdgeStyle;elbow=horizontal;rounded=0;fontColor=#000000;endArrow=none;endFill=0;strokeWidth=8;strokeColor=#23445D;entryX=0;entryY=0.5;entryDx=0;entryDy=0;" edge="1" parent="1" source="LH0M2-8ZSX1hAYfI60tU-33" target="LH0M2-8ZSX1hAYfI60tU-61">
          <mxGeometry width="100" height="100" relative="1" as="geometry">
            <mxPoint x="334" y="-1725.9999999999995" as="sourcePoint" />
            <mxPoint x="344" y="-1386" as="targetPoint" />
            <Array as="points">
              <mxPoint x="324" y="-1556" />
            </Array>
          </mxGeometry>
        </mxCell>
        <mxCell id="LH0M2-8ZSX1hAYfI60tU-46" value="" style="edgeStyle=elbowEdgeStyle;elbow=horizontal;rounded=0;fontColor=#000000;endArrow=none;endFill=0;strokeWidth=8;strokeColor=#23445D;entryX=0;entryY=0.5;entryDx=0;entryDy=0;" edge="1" parent="1" source="LH0M2-8ZSX1hAYfI60tU-33" target="LH0M2-8ZSX1hAYfI60tU-60">
          <mxGeometry width="100" height="100" relative="1" as="geometry">
            <mxPoint x="334" y="-1725.9999999999995" as="sourcePoint" />
            <mxPoint x="344" y="-1466" as="targetPoint" />
            <Array as="points">
              <mxPoint x="324" y="-1596" />
            </Array>
          </mxGeometry>
        </mxCell>
        <mxCell id="LH0M2-8ZSX1hAYfI60tU-47" value="quản lí doanh số" style="whiteSpace=wrap;rounded=1;fillColor=#12AAB5;strokeColor=none;shadow=1;fontColor=#FFFFFF;" vertex="1" parent="1">
          <mxGeometry x="546" y="-1770" width="120" height="60" as="geometry" />
        </mxCell>
        <mxCell id="LH0M2-8ZSX1hAYfI60tU-48" value="Hiển thị theo tháng , theo năm" style="whiteSpace=wrap;rounded=1;fillColor=#999999;strokeColor=none;shadow=1;fontColor=#FFFFFF;fontStyle=0" vertex="1" parent="1">
          <mxGeometry x="545.9999999999995" y="-1680" width="120" height="60" as="geometry" />
        </mxCell>
        <mxCell id="LH0M2-8ZSX1hAYfI60tU-49" value="" style="edgeStyle=elbowEdgeStyle;elbow=horizontal;rounded=0;fontColor=#000000;endArrow=none;endFill=0;strokeWidth=8;strokeColor=#23445D;" edge="1" parent="1" source="LH0M2-8ZSX1hAYfI60tU-47" target="LH0M2-8ZSX1hAYfI60tU-48">
          <mxGeometry width="100" height="100" relative="1" as="geometry">
            <mxPoint x="606" y="-1706" as="sourcePoint" />
            <mxPoint x="496" y="-1635.9999999999995" as="targetPoint" />
            <Array as="points">
              <mxPoint x="606" y="-1666" />
              <mxPoint x="486" y="-1686" />
            </Array>
          </mxGeometry>
        </mxCell>
        <mxCell id="LH0M2-8ZSX1hAYfI60tU-50" value="quản lí kho " style="whiteSpace=wrap;rounded=1;fillColor=#12AAB5;strokeColor=none;shadow=1;fontColor=#FFFFFF;" vertex="1" parent="1">
          <mxGeometry x="751" y="-1770" width="120" height="60" as="geometry" />
        </mxCell>
        <mxCell id="LH0M2-8ZSX1hAYfI60tU-51" value="thông tin sản phẩm " style="whiteSpace=wrap;rounded=1;fillColor=#999999;strokeColor=none;shadow=1;fontColor=#FFFFFF;fontStyle=0" vertex="1" parent="1">
          <mxGeometry x="750.9999999999995" y="-1682" width="120" height="60" as="geometry" />
        </mxCell>
        <mxCell id="LH0M2-8ZSX1hAYfI60tU-52" value="nhập " style="whiteSpace=wrap;rounded=1;fillColor=#999999;strokeColor=none;shadow=1;fontColor=#FFFFFF;fontStyle=0" vertex="1" parent="1">
          <mxGeometry x="750.9999999999998" y="-1603" width="120" height="60" as="geometry" />
        </mxCell>
        <mxCell id="LH0M2-8ZSX1hAYfI60tU-53" value="xuất" style="whiteSpace=wrap;rounded=1;fillColor=#999999;strokeColor=none;shadow=1;fontColor=#FFFFFF;fontStyle=0" vertex="1" parent="1">
          <mxGeometry x="750.9999999999998" y="-1523" width="120" height="60" as="geometry" />
        </mxCell>
        <mxCell id="LH0M2-8ZSX1hAYfI60tU-54" value="" style="edgeStyle=orthogonalEdgeStyle;elbow=horizontal;rounded=0;fontColor=#000000;endArrow=none;endFill=0;strokeWidth=8;strokeColor=#23445D;entryX=0;entryY=0.5;entryDx=0;entryDy=0;exitX=0;exitY=0.5;exitDx=0;exitDy=0;" edge="1" parent="1" source="LH0M2-8ZSX1hAYfI60tU-50" target="LH0M2-8ZSX1hAYfI60tU-51">
          <mxGeometry width="100" height="100" relative="1" as="geometry">
            <mxPoint x="860.9999999999995" y="-1696" as="sourcePoint" />
            <mxPoint x="801" y="-1596" as="targetPoint" />
          </mxGeometry>
        </mxCell>
        <mxCell id="LH0M2-8ZSX1hAYfI60tU-55" value="" style="edgeStyle=orthogonalEdgeStyle;elbow=horizontal;rounded=0;fontColor=#000000;endArrow=none;endFill=0;strokeWidth=8;strokeColor=#23445D;entryX=0;entryY=0.5;entryDx=0;entryDy=0;exitX=0;exitY=0.5;exitDx=0;exitDy=0;" edge="1" parent="1" source="LH0M2-8ZSX1hAYfI60tU-50" target="LH0M2-8ZSX1hAYfI60tU-52">
          <mxGeometry width="100" height="100" relative="1" as="geometry">
            <mxPoint x="860.9999999999995" y="-1696" as="sourcePoint" />
            <mxPoint x="852" y="-1486" as="targetPoint" />
          </mxGeometry>
        </mxCell>
        <mxCell id="LH0M2-8ZSX1hAYfI60tU-56" value="" style="edgeStyle=orthogonalEdgeStyle;elbow=horizontal;rounded=0;fontColor=#000000;endArrow=none;endFill=0;strokeWidth=8;strokeColor=#23445D;entryX=0;entryY=0.5;entryDx=0;entryDy=0;exitX=0;exitY=0.5;exitDx=0;exitDy=0;" edge="1" parent="1" source="LH0M2-8ZSX1hAYfI60tU-50" target="LH0M2-8ZSX1hAYfI60tU-53">
          <mxGeometry width="100" height="100" relative="1" as="geometry">
            <mxPoint x="860.9999999999995" y="-1696" as="sourcePoint" />
            <mxPoint x="860.9999999999995" y="-1416" as="targetPoint" />
          </mxGeometry>
        </mxCell>
        <mxCell id="LH0M2-8ZSX1hAYfI60tU-57" value="" style="edgeStyle=orthogonalEdgeStyle;elbow=vertical;rounded=0;fontColor=#000000;endArrow=none;endFill=0;strokeWidth=8;strokeColor=#23445D;entryX=0.5;entryY=0;entryDx=0;entryDy=0;exitX=0.5;exitY=1;exitDx=0;exitDy=0;" edge="1" parent="1" source="LH0M2-8ZSX1hAYfI60tU-31" target="LH0M2-8ZSX1hAYfI60tU-47">
          <mxGeometry width="100" height="100" relative="1" as="geometry">
            <mxPoint x="1130" y="-1280" as="sourcePoint" />
            <mxPoint x="1070" y="-1180" as="targetPoint" />
          </mxGeometry>
        </mxCell>
        <mxCell id="LH0M2-8ZSX1hAYfI60tU-58" value="sắp xếp (theo ngày tạo , theo tên , theo địa chỉ)" style="whiteSpace=wrap;rounded=1;fillColor=#999999;strokeColor=none;shadow=1;fontColor=#FFFFFF;fontStyle=0" vertex="1" parent="1">
          <mxGeometry x="119.00000000000034" y="-1600" width="120" height="60" as="geometry" />
        </mxCell>
        <mxCell id="LH0M2-8ZSX1hAYfI60tU-59" value="thêm" style="whiteSpace=wrap;rounded=1;fillColor=#999999;strokeColor=none;shadow=1;fontColor=#FFFFFF;fontStyle=0" vertex="1" parent="1">
          <mxGeometry x="344" y="-1603" width="120" height="60" as="geometry" />
        </mxCell>
        <mxCell id="LH0M2-8ZSX1hAYfI60tU-60" value="sửa" style="whiteSpace=wrap;rounded=1;fillColor=#999999;strokeColor=none;shadow=1;fontColor=#FFFFFF;fontStyle=0" vertex="1" parent="1">
          <mxGeometry x="344.0000000000001" y="-1523" width="120" height="60" as="geometry" />
        </mxCell>
        <mxCell id="LH0M2-8ZSX1hAYfI60tU-61" value="xóa" style="whiteSpace=wrap;rounded=1;fillColor=#999999;strokeColor=none;shadow=1;fontColor=#FFFFFF;fontStyle=0" vertex="1" parent="1">
          <mxGeometry x="344" y="-1443" width="120" height="60" as="geometry" />
        </mxCell>
        <mxCell id="LH0M2-8ZSX1hAYfI60tU-62" value="tìm kiếm " style="whiteSpace=wrap;rounded=1;fillColor=#999999;strokeColor=none;shadow=1;fontColor=#FFFFFF;fontStyle=0" vertex="1" parent="1">
          <mxGeometry x="344.00000000000034" y="-1363" width="120" height="60" as="geometry" />
        </mxCell>
        <mxCell id="LH0M2-8ZSX1hAYfI60tU-63" value="sắp xếp (theo ngày tạo , theo tên , theo địa chỉ)" style="whiteSpace=wrap;rounded=1;fillColor=#999999;strokeColor=none;shadow=1;fontColor=#FFFFFF;fontStyle=0" vertex="1" parent="1">
          <mxGeometry x="344.00000000000034" y="-1283" width="120" height="60" as="geometry" />
        </mxCell>
        <mxCell id="LH0M2-8ZSX1hAYfI60tU-64" value="" style="edgeStyle=elbowEdgeStyle;elbow=horizontal;rounded=0;fontColor=#000000;endArrow=none;endFill=0;strokeWidth=8;strokeColor=#23445D;entryX=0;entryY=0.5;entryDx=0;entryDy=0;exitX=0;exitY=0.5;exitDx=0;exitDy=0;" edge="1" parent="1" source="LH0M2-8ZSX1hAYfI60tU-33" target="LH0M2-8ZSX1hAYfI60tU-62">
          <mxGeometry width="100" height="100" relative="1" as="geometry">
            <mxPoint x="344" y="-1710.9999999999998" as="sourcePoint" />
            <mxPoint x="334" y="-1221" as="targetPoint" />
            <Array as="points">
              <mxPoint x="324" y="-1501" />
            </Array>
          </mxGeometry>
        </mxCell>
        <mxCell id="LH0M2-8ZSX1hAYfI60tU-65" value="" style="edgeStyle=elbowEdgeStyle;elbow=horizontal;rounded=0;fontColor=#000000;endArrow=none;endFill=0;strokeWidth=8;strokeColor=#23445D;entryX=0;entryY=0.5;entryDx=0;entryDy=0;exitX=0;exitY=0.5;exitDx=0;exitDy=0;" edge="1" parent="1" source="LH0M2-8ZSX1hAYfI60tU-33" target="LH0M2-8ZSX1hAYfI60tU-63">
          <mxGeometry width="100" height="100" relative="1" as="geometry">
            <mxPoint x="344" y="-1695.9999999999998" as="sourcePoint" />
            <mxPoint x="334" y="-1151" as="targetPoint" />
            <Array as="points">
              <mxPoint x="324" y="-1486" />
            </Array>
          </mxGeometry>
        </mxCell>
        <mxCell id="LH0M2-8ZSX1hAYfI60tU-66" value="Quản lý công nợ" style="whiteSpace=wrap;rounded=1;fillColor=#12AAB5;strokeColor=none;shadow=1;fontColor=#FFFFFF;" vertex="1" parent="1">
          <mxGeometry x="952" y="-1770" width="120" height="60" as="geometry" />
        </mxCell>
        <mxCell id="LH0M2-8ZSX1hAYfI60tU-67" value="Mã nhà cung cấp" style="whiteSpace=wrap;rounded=1;fillColor=#999999;strokeColor=none;shadow=1;fontColor=#FFFFFF;fontStyle=0" vertex="1" parent="1">
          <mxGeometry x="951.9999999999995" y="-1679" width="120" height="60" as="geometry" />
        </mxCell>
        <mxCell id="LH0M2-8ZSX1hAYfI60tU-68" value="Tên nhà cung cấp" style="whiteSpace=wrap;rounded=1;fillColor=#999999;strokeColor=none;shadow=1;fontColor=#FFFFFF;fontStyle=0" vertex="1" parent="1">
          <mxGeometry x="1160.9999999999998" y="-1600" width="120" height="60" as="geometry" />
        </mxCell>
        <mxCell id="LH0M2-8ZSX1hAYfI60tU-69" value="Phải thu" style="whiteSpace=wrap;rounded=1;fillColor=#999999;strokeColor=none;shadow=1;fontColor=#FFFFFF;fontStyle=0" vertex="1" parent="1">
          <mxGeometry x="951.9999999999998" y="-1600" width="120" height="60" as="geometry" />
        </mxCell>
        <mxCell id="LH0M2-8ZSX1hAYfI60tU-70" value="Phải trả" style="whiteSpace=wrap;rounded=1;fillColor=#999999;strokeColor=none;shadow=1;fontColor=#FFFFFF;fontStyle=0" vertex="1" parent="1">
          <mxGeometry x="951.9999999999998" y="-1523" width="120" height="60" as="geometry" />
        </mxCell>
        <mxCell id="LH0M2-8ZSX1hAYfI60tU-71" value="Địa chỉ" style="whiteSpace=wrap;rounded=1;fillColor=#999999;strokeColor=none;shadow=1;fontColor=#FFFFFF;fontStyle=0" vertex="1" parent="1">
          <mxGeometry x="1160.9999999999998" y="-1520" width="120" height="60" as="geometry" />
        </mxCell>
        <mxCell id="LH0M2-8ZSX1hAYfI60tU-72" value="Số điện thoại" style="whiteSpace=wrap;rounded=1;fillColor=#999999;strokeColor=none;shadow=1;fontColor=#FFFFFF;fontStyle=0" vertex="1" parent="1">
          <mxGeometry x="1160.9999999999998" y="-1440" width="120" height="60" as="geometry" />
        </mxCell>
        <mxCell id="LH0M2-8ZSX1hAYfI60tU-73" value="" style="edgeStyle=orthogonalEdgeStyle;elbow=horizontal;rounded=0;fontColor=#000000;endArrow=none;endFill=0;strokeWidth=8;strokeColor=#23445D;entryX=0;entryY=0.5;entryDx=0;entryDy=0;exitX=0;exitY=0.5;exitDx=0;exitDy=0;" edge="1" parent="1" source="LH0M2-8ZSX1hAYfI60tU-66" target="LH0M2-8ZSX1hAYfI60tU-67">
          <mxGeometry width="100" height="100" relative="1" as="geometry">
            <mxPoint x="856.9999999999995" y="-1716" as="sourcePoint" />
            <mxPoint x="856.9999999999995" y="-1436" as="targetPoint" />
          </mxGeometry>
        </mxCell>
        <mxCell id="LH0M2-8ZSX1hAYfI60tU-74" value="" style="edgeStyle=orthogonalEdgeStyle;elbow=horizontal;rounded=0;fontColor=#000000;endArrow=none;endFill=0;strokeWidth=8;strokeColor=#23445D;entryX=0;entryY=0.5;entryDx=0;entryDy=0;exitX=0;exitY=0.5;exitDx=0;exitDy=0;" edge="1" parent="1" source="LH0M2-8ZSX1hAYfI60tU-66" target="LH0M2-8ZSX1hAYfI60tU-69">
          <mxGeometry width="100" height="100" relative="1" as="geometry">
            <mxPoint x="856.9999999999995" y="-1716" as="sourcePoint" />
            <mxPoint x="856.9999999999995" y="-1436" as="targetPoint" />
          </mxGeometry>
        </mxCell>
        <mxCell id="LH0M2-8ZSX1hAYfI60tU-75" value="" style="edgeStyle=orthogonalEdgeStyle;elbow=horizontal;rounded=0;fontColor=#000000;endArrow=none;endFill=0;strokeWidth=8;strokeColor=#23445D;entryX=0;entryY=0.5;entryDx=0;entryDy=0;exitX=0;exitY=0.5;exitDx=0;exitDy=0;" edge="1" parent="1" source="LH0M2-8ZSX1hAYfI60tU-66" target="LH0M2-8ZSX1hAYfI60tU-70">
          <mxGeometry width="100" height="100" relative="1" as="geometry">
            <mxPoint x="856.9999999999995" y="-1716" as="sourcePoint" />
            <mxPoint x="856.9999999999995" y="-1436" as="targetPoint" />
          </mxGeometry>
        </mxCell>
        <mxCell id="LH0M2-8ZSX1hAYfI60tU-76" value="" style="edgeStyle=orthogonalEdgeStyle;elbow=vertical;rounded=0;fontColor=#000000;endArrow=none;endFill=0;strokeWidth=8;strokeColor=#23445D;entryX=0.5;entryY=0;entryDx=0;entryDy=0;exitX=0.5;exitY=1;exitDx=0;exitDy=0;" edge="1" parent="1" source="LH0M2-8ZSX1hAYfI60tU-31" target="LH0M2-8ZSX1hAYfI60tU-66">
          <mxGeometry width="100" height="100" relative="1" as="geometry">
            <mxPoint x="615" y="-1190" as="sourcePoint" />
            <mxPoint x="765" y="-1080" as="targetPoint" />
          </mxGeometry>
        </mxCell>
        <mxCell id="LH0M2-8ZSX1hAYfI60tU-77" value="Quản lý nhà cung cấp" style="whiteSpace=wrap;rounded=1;fillColor=#12AAB5;strokeColor=none;shadow=1;fontColor=#FFFFFF;" vertex="1" parent="1">
          <mxGeometry x="1161" y="-1772.5" width="120" height="60" as="geometry" />
        </mxCell>
        <mxCell id="LH0M2-8ZSX1hAYfI60tU-78" value="" style="edgeStyle=elbowEdgeStyle;elbow=horizontal;rounded=0;fontColor=#000000;endArrow=none;endFill=0;strokeWidth=8;strokeColor=#23445D;entryX=0;entryY=0.5;entryDx=0;entryDy=0;exitX=0;exitY=0.5;exitDx=0;exitDy=0;" edge="1" parent="1" source="LH0M2-8ZSX1hAYfI60tU-77" target="LH0M2-8ZSX1hAYfI60tU-72">
          <mxGeometry width="100" height="100" relative="1" as="geometry">
            <mxPoint x="981" y="-1735.5" as="sourcePoint" />
            <mxPoint x="981" y="-1455.5" as="targetPoint" />
            <Array as="points">
              <mxPoint x="1141" y="-1595.5" />
              <mxPoint x="951" y="-1635.5" />
              <mxPoint x="951" y="-1645.5" />
              <mxPoint x="781" y="-1595.5" />
              <mxPoint x="851" y="-1595.5" />
            </Array>
          </mxGeometry>
        </mxCell>
        <mxCell id="LH0M2-8ZSX1hAYfI60tU-79" value="" style="edgeStyle=orthogonalEdgeStyle;elbow=vertical;rounded=0;fontColor=#000000;endArrow=none;endFill=0;strokeWidth=8;strokeColor=#23445D;entryX=0.5;entryY=0;entryDx=0;entryDy=0;exitX=0.5;exitY=1;exitDx=0;exitDy=0;" edge="1" parent="1" source="LH0M2-8ZSX1hAYfI60tU-31" target="LH0M2-8ZSX1hAYfI60tU-77">
          <mxGeometry width="100" height="100" relative="1" as="geometry">
            <mxPoint x="615" y="-1190" as="sourcePoint" />
            <mxPoint x="765" y="-1080" as="targetPoint" />
          </mxGeometry>
        </mxCell>
        <mxCell id="LH0M2-8ZSX1hAYfI60tU-80" value="" style="edgeStyle=elbowEdgeStyle;elbow=horizontal;rounded=0;fontColor=#000000;endArrow=none;endFill=0;strokeWidth=8;strokeColor=#23445D;entryX=0;entryY=0.5;entryDx=0;entryDy=0;exitX=0;exitY=0.5;exitDx=0;exitDy=0;" edge="1" parent="1" source="LH0M2-8ZSX1hAYfI60tU-77" target="LH0M2-8ZSX1hAYfI60tU-68">
          <mxGeometry width="100" height="100" relative="1" as="geometry">
            <mxPoint x="981" y="-1735.5" as="sourcePoint" />
            <mxPoint x="981" y="-1455.5" as="targetPoint" />
            <Array as="points">
              <mxPoint x="1141" y="-1595.5" />
              <mxPoint x="951" y="-1635.5" />
              <mxPoint x="951" y="-1645.5" />
              <mxPoint x="781" y="-1595.5" />
              <mxPoint x="851" y="-1595.5" />
            </Array>
          </mxGeometry>
        </mxCell>
        <mxCell id="LH0M2-8ZSX1hAYfI60tU-81" value="" style="edgeStyle=elbowEdgeStyle;elbow=horizontal;rounded=0;fontColor=#000000;endArrow=none;endFill=0;strokeWidth=8;strokeColor=#23445D;entryX=0;entryY=0.5;entryDx=0;entryDy=0;exitX=0;exitY=0.5;exitDx=0;exitDy=0;" edge="1" parent="1" source="LH0M2-8ZSX1hAYfI60tU-77" target="LH0M2-8ZSX1hAYfI60tU-71">
          <mxGeometry width="100" height="100" relative="1" as="geometry">
            <mxPoint x="981" y="-1735.5" as="sourcePoint" />
            <mxPoint x="981" y="-1455.5" as="targetPoint" />
            <Array as="points">
              <mxPoint x="1141" y="-1595.5" />
              <mxPoint x="951" y="-1635.5" />
              <mxPoint x="951" y="-1645.5" />
              <mxPoint x="781" y="-1595.5" />
              <mxPoint x="851" y="-1595.5" />
            </Array>
          </mxGeometry>
        </mxCell>
        <mxCell id="LH0M2-8ZSX1hAYfI60tU-82" value="Mã nhà cung cấp" style="whiteSpace=wrap;rounded=1;fillColor=#999999;strokeColor=none;shadow=1;fontColor=#FFFFFF;fontStyle=0" vertex="1" parent="1">
          <mxGeometry x="1160.9999999999995" y="-1680" width="120" height="60" as="geometry" />
        </mxCell>
        <mxCell id="LH0M2-8ZSX1hAYfI60tU-83" value="" style="edgeStyle=elbowEdgeStyle;elbow=horizontal;rounded=0;fontColor=#000000;endArrow=none;endFill=0;strokeWidth=8;strokeColor=#23445D;entryX=0;entryY=0.5;entryDx=0;entryDy=0;exitX=0;exitY=0.5;exitDx=0;exitDy=0;" edge="1" parent="1" source="LH0M2-8ZSX1hAYfI60tU-77" target="LH0M2-8ZSX1hAYfI60tU-82">
          <mxGeometry width="100" height="100" relative="1" as="geometry">
            <mxPoint x="981" y="-1735.5" as="sourcePoint" />
            <mxPoint x="981" y="-1455.5" as="targetPoint" />
            <Array as="points">
              <mxPoint x="1141" y="-1595.5" />
              <mxPoint x="951" y="-1635.5" />
              <mxPoint x="951" y="-1645.5" />
              <mxPoint x="781" y="-1595.5" />
              <mxPoint x="851" y="-1595.5" />
            </Array>
          </mxGeometry>
        </mxCell>
        <mxCell id="LH0M2-8ZSX1hAYfI60tU-84" value="" style="edgeStyle=orthogonalEdgeStyle;elbow=vertical;rounded=0;fontColor=#000000;endArrow=none;endFill=0;strokeWidth=8;strokeColor=#23445D;exitX=0.5;exitY=1;exitDx=0;exitDy=0;" edge="1" parent="1" source="LH0M2-8ZSX1hAYfI60tU-3" target="LH0M2-8ZSX1hAYfI60tU-30">
          <mxGeometry width="100" height="100" relative="1" as="geometry">
            <mxPoint x="-768" y="-1416" as="sourcePoint" />
            <mxPoint x="-628" y="-1316" as="targetPoint" />
          </mxGeometry>
        </mxCell>
        <mxCell id="LH0M2-8ZSX1hAYfI60tU-85" value="Quản lý đơn hàng" style="whiteSpace=wrap;rounded=1;fillColor=#12AAB5;strokeColor=none;shadow=1;fontColor=#FFFFFF;" vertex="1" parent="1">
          <mxGeometry x="-910" y="-1772.5" width="120" height="60" as="geometry" />
        </mxCell>
        <mxCell id="LH0M2-8ZSX1hAYfI60tU-86" value="" style="edgeStyle=orthogonalEdgeStyle;elbow=vertical;rounded=0;fontColor=#000000;endArrow=none;endFill=0;strokeWidth=8;strokeColor=#23445D;exitX=0.5;exitY=1;exitDx=0;exitDy=0;" edge="1" parent="1" source="LH0M2-8ZSX1hAYfI60tU-3" target="LH0M2-8ZSX1hAYfI60tU-85">
          <mxGeometry width="100" height="100" relative="1" as="geometry">
            <mxPoint x="-768" y="-1416" as="sourcePoint" />
            <mxPoint x="-1178" y="-1306" as="targetPoint" />
          </mxGeometry>
        </mxCell>
        <mxCell id="LH0M2-8ZSX1hAYfI60tU-87" value="" style="edgeStyle=orthogonalEdgeStyle;elbow=horizontal;rounded=0;fontColor=#000000;endArrow=none;endFill=0;strokeWidth=8;strokeColor=#23445D;exitX=0.5;exitY=1;exitDx=0;exitDy=0;entryX=0;entryY=0.5;entryDx=0;entryDy=0;" edge="1" parent="1" source="LH0M2-8ZSX1hAYfI60tU-85" target="LH0M2-8ZSX1hAYfI60tU-17">
          <mxGeometry width="100" height="100" relative="1" as="geometry">
            <mxPoint x="-920" y="-1632" as="sourcePoint" />
            <mxPoint x="-880" y="-1582" as="targetPoint" />
          </mxGeometry>
        </mxCell>
        <mxCell id="LH0M2-8ZSX1hAYfI60tU-88" value="" style="elbow=horizontal;rounded=0;fontColor=#000000;endArrow=none;endFill=0;strokeWidth=8;strokeColor=#23445D;exitX=0.5;exitY=1;exitDx=0;exitDy=0;entryX=0;entryY=0.5;entryDx=0;entryDy=0;edgeStyle=orthogonalEdgeStyle;" edge="1" parent="1" source="LH0M2-8ZSX1hAYfI60tU-30" target="LH0M2-8ZSX1hAYfI60tU-89">
          <mxGeometry width="100" height="100" relative="1" as="geometry">
            <mxPoint x="-488" y="-1742" as="sourcePoint" />
            <mxPoint x="-498" y="-1642" as="targetPoint" />
          </mxGeometry>
        </mxCell>
        <mxCell id="LH0M2-8ZSX1hAYfI60tU-89" value="modul 5 sao" style="whiteSpace=wrap;rounded=1;fillColor=#999999;strokeColor=none;shadow=1;fontColor=#FFFFFF;fontStyle=0" vertex="1" parent="1">
          <mxGeometry x="-400.00000000000045" y="-1682" width="120" height="60" as="geometry" />
        </mxCell>
        <mxCell id="LH0M2-8ZSX1hAYfI60tU-90" value="giỏ hàng " style="whiteSpace=wrap;rounded=1;fillColor=#12AAB5;strokeColor=none;shadow=1;fontColor=#FFFFFF;" vertex="1" parent="1">
          <mxGeometry x="-208" y="-1772.5" width="120" height="60" as="geometry" />
        </mxCell>
        <mxCell id="LH0M2-8ZSX1hAYfI60tU-91" value="thông tin sản phẩm " style="whiteSpace=wrap;rounded=1;fillColor=#999999;strokeColor=none;shadow=1;fontColor=#FFFFFF;fontStyle=0" vertex="1" parent="1">
          <mxGeometry x="-100.50000000000045" y="-1680" width="120" height="60" as="geometry" />
        </mxCell>
        <mxCell id="LH0M2-8ZSX1hAYfI60tU-92" value="thêm " style="whiteSpace=wrap;rounded=1;fillColor=#999999;strokeColor=none;shadow=1;fontColor=#FFFFFF;fontStyle=0" vertex="1" parent="1">
          <mxGeometry x="-100.50000000000023" y="-1600" width="120" height="60" as="geometry" />
        </mxCell>
        <mxCell id="LH0M2-8ZSX1hAYfI60tU-93" value="xóa" style="whiteSpace=wrap;rounded=1;fillColor=#999999;strokeColor=none;shadow=1;fontColor=#FFFFFF;fontStyle=0" vertex="1" parent="1">
          <mxGeometry x="-100.50000000000023" y="-1520" width="120" height="60" as="geometry" />
        </mxCell>
        <mxCell id="LH0M2-8ZSX1hAYfI60tU-94" value="" style="edgeStyle=orthogonalEdgeStyle;elbow=horizontal;rounded=0;fontColor=#000000;endArrow=none;endFill=0;strokeWidth=8;strokeColor=#23445D;entryX=0;entryY=0.5;entryDx=0;entryDy=0;" edge="1" parent="1" source="LH0M2-8ZSX1hAYfI60tU-90" target="LH0M2-8ZSX1hAYfI60tU-91">
          <mxGeometry width="100" height="100" relative="1" as="geometry">
            <mxPoint x="-72.50000000000045" y="-1762" as="sourcePoint" />
            <mxPoint x="-118" y="-1672" as="targetPoint" />
          </mxGeometry>
        </mxCell>
        <mxCell id="LH0M2-8ZSX1hAYfI60tU-95" value="" style="edgeStyle=orthogonalEdgeStyle;elbow=horizontal;rounded=0;fontColor=#000000;endArrow=none;endFill=0;strokeWidth=8;strokeColor=#23445D;entryX=0;entryY=0.5;entryDx=0;entryDy=0;" edge="1" parent="1" source="LH0M2-8ZSX1hAYfI60tU-90" target="LH0M2-8ZSX1hAYfI60tU-92">
          <mxGeometry width="100" height="100" relative="1" as="geometry">
            <mxPoint x="-72.50000000000045" y="-1762" as="sourcePoint" />
            <mxPoint x="-72.50000000000045" y="-1572" as="targetPoint" />
          </mxGeometry>
        </mxCell>
        <mxCell id="LH0M2-8ZSX1hAYfI60tU-96" value="" style="edgeStyle=orthogonalEdgeStyle;elbow=horizontal;rounded=0;fontColor=#000000;endArrow=none;endFill=0;strokeWidth=8;strokeColor=#23445D;entryX=0;entryY=0.5;entryDx=0;entryDy=0;" edge="1" parent="1" source="LH0M2-8ZSX1hAYfI60tU-90" target="LH0M2-8ZSX1hAYfI60tU-93">
          <mxGeometry width="100" height="100" relative="1" as="geometry">
            <mxPoint x="-72.50000000000045" y="-1762" as="sourcePoint" />
            <mxPoint x="-72.50000000000045" y="-1482" as="targetPoint" />
          </mxGeometry>
        </mxCell>
        <mxCell id="LH0M2-8ZSX1hAYfI60tU-97" value="" style="edgeStyle=orthogonalEdgeStyle;elbow=horizontal;rounded=0;fontColor=#000000;endArrow=none;endFill=0;strokeWidth=8;strokeColor=#23445D;exitX=0.5;exitY=1;exitDx=0;exitDy=0;entryX=0;entryY=0.5;entryDx=0;entryDy=0;" edge="1" parent="1" source="LH0M2-8ZSX1hAYfI60tU-17" target="LH0M2-8ZSX1hAYfI60tU-20">
          <mxGeometry width="100" height="100" relative="1" as="geometry">
            <mxPoint x="-742" y="-1527" as="sourcePoint" />
            <mxPoint x="-692" y="-1559.5" as="targetPoint" />
          </mxGeometry>
        </mxCell>
        <mxCell id="LH0M2-8ZSX1hAYfI60tU-98" value="" style="elbow=horizontal;rounded=0;fontColor=#000000;endArrow=none;endFill=0;strokeWidth=8;strokeColor=#23445D;exitX=0.5;exitY=1;exitDx=0;exitDy=0;entryX=0;entryY=0.5;entryDx=0;entryDy=0;edgeStyle=orthogonalEdgeStyle;" edge="1" parent="1" source="LH0M2-8ZSX1hAYfI60tU-18" target="LH0M2-8ZSX1hAYfI60tU-26">
          <mxGeometry width="100" height="100" relative="1" as="geometry">
            <mxPoint x="-1110" y="-1339" as="sourcePoint" />
            <mxPoint x="-1080" y="-989" as="targetPoint" />
          </mxGeometry>
        </mxCell>
        <mxCell id="LH0M2-8ZSX1hAYfI60tU-99" value="xóa" style="whiteSpace=wrap;rounded=1;fillColor=#999999;strokeColor=none;shadow=1;fontColor=#FFFFFF;fontStyle=0" vertex="1" parent="1">
          <mxGeometry x="1436.4999999999998" y="650.0000000000001" width="120" height="60" as="geometry" />
        </mxCell>
        <mxCell id="LH0M2-8ZSX1hAYfI60tU-100" value="" style="edgeStyle=orthogonalEdgeStyle;elbow=horizontal;rounded=0;fontColor=#000000;endArrow=none;endFill=0;strokeWidth=8;strokeColor=#23445D;exitX=0.5;exitY=1;exitDx=0;exitDy=0;entryX=0;entryY=0.5;entryDx=0;entryDy=0;" edge="1" parent="1" source="LH0M2-8ZSX1hAYfI60tU-18" target="LH0M2-8ZSX1hAYfI60tU-27">
          <mxGeometry width="100" height="100" relative="1" as="geometry">
            <mxPoint x="-810" y="-1179" as="sourcePoint" />
            <mxPoint x="-760" y="-1029" as="targetPoint" />
          </mxGeometry>
        </mxCell>
        <mxCell id="LH0M2-8ZSX1hAYfI60tU-101" value="" style="edgeStyle=orthogonalEdgeStyle;elbow=horizontal;rounded=0;fontColor=#000000;endArrow=none;endFill=0;strokeWidth=8;strokeColor=#23445D;exitX=0.5;exitY=1;exitDx=0;exitDy=0;entryX=1;entryY=0.5;entryDx=0;entryDy=0;" edge="1" parent="1" source="LH0M2-8ZSX1hAYfI60tU-85" target="LH0M2-8ZSX1hAYfI60tU-18">
          <mxGeometry width="100" height="100" relative="1" as="geometry">
            <mxPoint x="-920" y="-1632" as="sourcePoint" />
            <mxPoint x="-980" y="-1692" as="targetPoint" />
          </mxGeometry>
        </mxCell>
        <mxCell id="LH0M2-8ZSX1hAYfI60tU-102" value="Nâng hạng" style="whiteSpace=wrap;rounded=1;fillColor=#12AAB5;strokeColor=none;shadow=1;fontColor=#FFFFFF;" vertex="1" parent="1">
          <mxGeometry x="-1250" y="-1600" width="120" height="60" as="geometry" />
        </mxCell>
        <mxCell id="LH0M2-8ZSX1hAYfI60tU-103" value="Nhận xét" style="whiteSpace=wrap;rounded=1;fillColor=#999999;strokeColor=none;shadow=1;fontColor=#FFFFFF;fontStyle=0" vertex="1" parent="1">
          <mxGeometry x="-400.00000000000045" y="-1603" width="120" height="60" as="geometry" />
        </mxCell>
        <mxCell id="LH0M2-8ZSX1hAYfI60tU-104" value="" style="elbow=horizontal;rounded=0;fontColor=#000000;endArrow=none;endFill=0;strokeWidth=8;strokeColor=#23445D;exitX=0.5;exitY=1;exitDx=0;exitDy=0;entryX=0;entryY=0.5;entryDx=0;entryDy=0;edgeStyle=orthogonalEdgeStyle;" edge="1" parent="1" source="LH0M2-8ZSX1hAYfI60tU-30" target="LH0M2-8ZSX1hAYfI60tU-103">
          <mxGeometry width="100" height="100" relative="1" as="geometry">
            <mxPoint x="-488" y="-1742" as="sourcePoint" />
            <mxPoint x="-498" y="-1642" as="targetPoint" />
          </mxGeometry>
        </mxCell>
        <mxCell id="LH0M2-8ZSX1hAYfI60tU-105" value="" style="edgeStyle=orthogonalEdgeStyle;elbow=vertical;rounded=0;fontColor=#000000;endArrow=none;endFill=0;strokeWidth=8;strokeColor=#23445D;exitX=0.5;exitY=1;exitDx=0;exitDy=0;" edge="1" parent="1" source="LH0M2-8ZSX1hAYfI60tU-3" target="LH0M2-8ZSX1hAYfI60tU-90">
          <mxGeometry width="100" height="100" relative="1" as="geometry">
            <mxPoint x="-768" y="-1416" as="sourcePoint" />
            <mxPoint x="-628" y="-1316" as="targetPoint" />
          </mxGeometry>
        </mxCell>
        <mxCell id="LH0M2-8ZSX1hAYfI60tU-106" value="" style="edgeStyle=orthogonalEdgeStyle;elbow=vertical;rounded=0;fontColor=#000000;endArrow=none;endFill=0;strokeWidth=8;strokeColor=#23445D;entryX=0.5;entryY=1;entryDx=0;entryDy=0;exitX=0.5;exitY=0;exitDx=0;exitDy=0;startArrow=none;" edge="1" parent="1" source="LH0M2-8ZSX1hAYfI60tU-110" target="LH0M2-8ZSX1hAYfI60tU-2">
          <mxGeometry width="100" height="100" relative="1" as="geometry">
            <mxPoint x="-138" y="-860.0000000000005" as="sourcePoint" />
            <mxPoint x="-720" y="-770.0000000000005" as="targetPoint" />
          </mxGeometry>
        </mxCell>
        <mxCell id="LH0M2-8ZSX1hAYfI60tU-107" value="" style="edgeStyle=orthogonalEdgeStyle;elbow=vertical;rounded=0;fontColor=#000000;endArrow=none;endFill=0;strokeWidth=8;strokeColor=#23445D;entryX=0.5;entryY=1;entryDx=0;entryDy=0;exitX=0.5;exitY=0;exitDx=0;exitDy=0;startArrow=none;" edge="1" parent="1" source="LH0M2-8ZSX1hAYfI60tU-108" target="LH0M2-8ZSX1hAYfI60tU-2">
          <mxGeometry width="100" height="100" relative="1" as="geometry">
            <mxPoint x="-138" y="-860.0000000000005" as="sourcePoint" />
            <mxPoint x="-720" y="-770.0000000000005" as="targetPoint" />
          </mxGeometry>
        </mxCell>
        <mxCell id="LH0M2-8ZSX1hAYfI60tU-108" value="Đăng kí &#xa;Đăng nhập &#xa;Đăng xuất" style="whiteSpace=wrap;rounded=1;fillColor=#12AAB5;strokeColor=none;shadow=1;fontColor=#FFFFFF;" vertex="1" parent="1">
          <mxGeometry x="-460" y="-2060" width="120" height="60" as="geometry" />
        </mxCell>
        <mxCell id="LH0M2-8ZSX1hAYfI60tU-109" value="" style="edgeStyle=orthogonalEdgeStyle;elbow=vertical;rounded=0;fontColor=#000000;endArrow=none;endFill=0;strokeWidth=8;strokeColor=#23445D;entryX=0.5;entryY=1;entryDx=0;entryDy=0;exitX=0.5;exitY=0;exitDx=0;exitDy=0;" edge="1" parent="1" source="LH0M2-8ZSX1hAYfI60tU-3" target="LH0M2-8ZSX1hAYfI60tU-108">
          <mxGeometry width="100" height="100" relative="1" as="geometry">
            <mxPoint x="-790" y="-1970.0000000000005" as="sourcePoint" />
            <mxPoint x="20" y="-2079.9999999999995" as="targetPoint" />
          </mxGeometry>
        </mxCell>
        <mxCell id="LH0M2-8ZSX1hAYfI60tU-110" value="đăng nhập &#xa; Đăng xuất" style="whiteSpace=wrap;rounded=1;fillColor=#12AAB5;strokeColor=none;shadow=1;fontColor=#FFFFFF;" vertex="1" parent="1">
          <mxGeometry x="250" y="-2060" width="120" height="60" as="geometry" />
        </mxCell>
        <mxCell id="LH0M2-8ZSX1hAYfI60tU-111" value="" style="edgeStyle=orthogonalEdgeStyle;elbow=vertical;rounded=0;fontColor=#000000;endArrow=none;endFill=0;strokeWidth=8;strokeColor=#23445D;entryX=0.5;entryY=1;entryDx=0;entryDy=0;exitX=0.5;exitY=0;exitDx=0;exitDy=0;" edge="1" parent="1" source="LH0M2-8ZSX1hAYfI60tU-31" target="LH0M2-8ZSX1hAYfI60tU-110">
          <mxGeometry width="100" height="100" relative="1" as="geometry">
            <mxPoint x="680" y="-1970.0000000000005" as="sourcePoint" />
            <mxPoint x="20" y="-2079.9999999999995" as="targetPoint" />
          </mxGeometry>
        </mxCell>
      </root>
    </mxGraphModel>
  </diagram>
</mxfile>
